P1
# Círculo preto em um fundo branco
10 10
0 0 0 0 0 0 0 0 0 0
0 0 0 0 1 0 0 0 0 0
0 0 0 1 1 1 0 0 0 0
0 0 1 1 1 1 1 0 0 0
0 1 1 1 1 1 1 1 0 0
0 0 1 1 1 1 1 0 0 0
0 0 0 1 1 1 0 0 0 0
0 0 0 0 1 0 0 0 0 0
0 0 0 0 0 0 0 0 0 0
0 0 0 0 0 0 0 0 0 0

